# xmcd
#
# Track frame offsets:
#	150
#	12865
#	34081
#	64499
#	90914
#	108072
#	113487
#	122279
#	128881
#	152791
#
# Disc length: 2364 seconds
#
# Revision: 0
# Processed by: cddbd v1.4PL0 Copyright (c) Steve Scherf et al.
# Submitted via: dBpowerAMP V4.0
#
DISCID=6e093a0a
DTITLE=Sting - Mercury Falling
DYEAR=1900
DGENRE=Blues
TTITLE0=The Hounds Of Winter
TTITLE1=I Hung My Head
TTITLE2=Let Your Soul Be Your Pilot
TTITLE3=I Was Brought To My Senses
TTITLE4=You Still Touch Me
TTITLE5=I'm So Happy I Can't stop Crying
TTITLE6=All Four seasons
TTITLE7=Twenty Five To Midnight
TTITLE8=La Belle Dame Sans Regrets
TTITLE9=Valparaiso
EXTD=
EXTT0=
EXTT1=
EXTT2=
EXTT3=
EXTT4=
EXTT5=
EXTT6=
EXTT7=
EXTT8=
EXTT9=
PLAYORDER=
